<svg width="1160" height="1299" viewBox="0 0 1160 1299" fill="none" xmlns="http://www.w3.org/2000/svg">
<g filter="url(#filter0_i)">
<path d="M767.5 530.75C766.822 533.989 765.917 537.203 765.056 540.389C764.444 542.653 763.284 544.707 762.694 547C761.841 550.32 760.064 553.552 759.556 556.944C759.125 559.818 757.938 562.648 757.75 565.556C757.668 566.827 757.183 568.094 757.014 569.361C756.876 570.396 756.855 571.432 756.556 572.444C755.768 575.102 755.366 578.068 754.806 580.806C753.876 585.351 752.087 590.432 753.194 595.139C754.421 600.353 755.506 605.373 757.944 610.25C758.902 612.166 760.183 613.882 760.806 616C761.589 618.664 763.042 621.189 763.944 623.806C764.605 625.72 765.623 627.557 766.194 629.5C766.721 631.292 767.843 632.821 768.194 634.667C768.425 635.879 768.992 638.267 768.444 639.5C768.212 640.023 768 641.073 768 641.639C768 642.226 767.876 642.681 767.75 643.25C767.593 643.955 767.229 644.328 768 643.75" stroke="white" stroke-linecap="round" stroke-linejoin="round"/>
<path d="M768.25 643.5C766.176 644.381 766.417 646.416 765.194 647.944C764.394 648.945 764.635 650.658 763.944 651.694C762.794 653.42 761.729 655.4 760.75 657.25C759.62 659.385 757.749 661.09 756.556 663C755.631 664.479 753.745 665.574 752.5 666.75C750.929 668.233 749.151 669.403 747.667 670.944C746.862 671.78 746.054 672.651 745.25 673.5C744.612 674.173 744.293 675.089 743.5 675.556C742.552 676.113 741.837 677.413 741.056 678.194C740.334 678.916 739.509 679.614 738.875 680.389C737.539 682.021 736.308 683.973 734.75 685.375C733.878 686.16 733.05 687.375 732.25 688.264C731.502 689.094 730.798 690.621 729.875 691.236C729.114 691.743 728.6 692.871 728.111 693.639C727.255 694.984 726.255 696.214 725.361 697.514C723.714 699.909 722.203 702.321 720.639 704.806C719.248 707.014 717.956 709.332 716.139 711.25C714.341 713.148 712.426 715.514 711 717.694C709.441 720.079 708.008 722.242 706 724.25C704.976 725.274 703.831 726.105 703 727.306C702.276 728.352 701.084 728.897 700.375 730C699.515 731.338 698.067 732.366 697.375 733.889C696.314 736.224 694.108 738.347 692.125 739.889C690.327 741.287 689.14 744.268 688.5 746.347C687.926 748.214 687.573 750.419 686.625 752.125C685.782 753.642 686.5 755.577 686.5 757.125C686.5 757.977 686.78 759.044 687.014 759.861C687.21 760.546 687.257 761.712 687.625 762.375C687.919 762.904 688.124 763.994 688.264 764.625C688.444 765.434 689.217 766.391 689.625 767.125C690.502 768.704 691.723 770.207 692.75 771.667C694.812 774.597 696.192 778.857 699.5 780.694C700.44 781.217 701.063 782.013 702 782.556C702.823 783.032 703.752 783.566 704.556 784.111C706.528 785.449 707.845 786.926 710.111 787.75C713.783 789.085 717.758 790.255 721.125 792.125C722.751 793.029 724.915 793.069 726.236 794.611C726.726 795.183 730.107 797.893 730.5 797.5" stroke="white" stroke-linecap="round" stroke-linejoin="round"/>
<path d="M712.25 776.5C712.708 774.364 713.937 772.62 716.056 771.806C717.534 771.237 719.759 769.615 721.306 769.5C723.234 769.357 725.016 769 727 769C728.769 769 730.667 768.789 732.389 769.194C735.939 770.03 739.471 770.666 742.75 772.306C745.666 773.764 747.994 776.494 750.25 778.75" stroke="white" stroke-linecap="round" stroke-linejoin="round"/>
<path d="M752.25 788C753.464 787.526 754.725 787.399 755.861 786.75C756.814 786.206 757.853 785.454 758.875 785C760.027 784.488 761.172 783.578 762.056 782.694C763.036 781.714 764.056 780.108 765.25 779.444C766.116 778.964 766.865 777.542 767.667 776.847C768.821 775.847 769.496 774.774 770.389 773.625C771.109 772.699 771.75 771.562 772.25 770.5C772.498 769.974 773.091 768.205 773.5 768" stroke="white" stroke-linecap="round" stroke-linejoin="round"/>
<path d="M766 739C767.975 739.771 769.074 740.574 770.5 742C771.064 742.564 771.665 743.439 771.944 744.194C772.082 744.566 772.75 746.2 772.75 745.5" stroke="white" stroke-linecap="round" stroke-linejoin="round"/>
<path d="M801.25 661C801.929 659.415 803.276 657.711 804.875 657C805.576 656.689 805.943 655.715 806.556 655.25C807.195 654.764 808.09 654.106 808.5 653.389C809.437 651.748 811.693 650.602 812.694 649C813.143 648.283 814.044 648.08 814.514 647.375C814.946 646.726 815.919 646.098 816.556 645.639C817.961 644.627 819.794 642.871 820.625 641.375C821.519 639.767 823.472 638.59 824.611 637.125C825.689 635.739 827.079 634.91 828.361 633.75C830.064 632.21 832.28 630.682 834.25 629.5" stroke="white" stroke-linecap="round" stroke-linejoin="round"/>
<path d="M786.75 633.5C788.738 632.337 791.712 632.563 794 632.236C795.172 632.069 796.291 631.284 797.5 631.25C798.773 631.215 799.755 630.375 801 630.25C803.338 630.016 805.359 628.328 807.75 627.986C809.381 627.753 811.005 627.25 812.694 627.25C816.432 627.25 820.975 627.296 824.556 626.194C825.408 625.932 826.406 625.81 827.292 625.736C828.501 625.635 829.645 625 830.875 625C832.175 625 835.167 624.472 836.25 623.75" stroke="white" stroke-linecap="round" stroke-linejoin="round"/>
<path d="M785.75 624.75C784.934 625.388 784.589 626.227 784.764 625C784.851 624.388 785.302 623.432 785.556 622.861C786.025 621.806 786.191 620.578 786.556 619.444C787.015 618.014 787.482 616.371 788.444 615.194C789.129 614.358 790.25 611.419 790.25 612.5" stroke="white" stroke-linecap="round" stroke-linejoin="round"/>
<path d="M796.75 641.5C797.325 644.445 798.847 645.717 800.389 648.139C801.145 649.328 801.887 650.387 802.875 651.375C803.572 652.072 805.081 652.912 805.5 653.75" stroke="white" stroke-linecap="round" stroke-linejoin="round"/>
<path d="M805.25 614.75C810.46 614.626 815.31 613.934 820.389 612.806C822.325 612.375 824.812 612 826.806 612C827.626 612 831.971 612.558 832.25 612" stroke="white" stroke-linecap="round" stroke-linejoin="round"/>
<path d="M787.25 608.25C787.05 607.203 787.035 606.209 786.556 605.25C786.272 604.683 785.9 603.989 785.764 603.375C785.543 602.381 784.581 600.939 785.5 600.25" stroke="white" stroke-linecap="round" stroke-linejoin="round"/>
<path d="M730.5 797.5C730.702 798.533 731 799.362 731 800.375C731 801.157 730.75 801.918 730.75 802.639C730.75 804.834 729.108 806.673 728.194 808.5C727.448 809.992 726.454 811.342 725.889 812.875C725.273 814.547 724.491 817.036 723.125 818.25C722.528 818.781 721.885 820.184 721.5 820.889C721.113 821.599 720.141 822.22 719.556 822.806C718.47 823.891 716.647 825.539 716.125 827C715.443 828.908 713.668 830.582 712.25 832C711.025 833.225 709.5 836.036 709.5 837.806C709.5 839.218 709.208 840.998 709.514 842.375C709.919 844.196 710.826 845.85 711.694 847.5C713.396 850.734 715.682 853.288 717.889 856.125C718.85 857.361 720.017 858.41 720.806 859.75C721.821 861.476 724.297 861.748 725.875 862.625C726.657 863.059 727.877 863.056 728.75 863.444C729.413 863.739 730.293 863.742 731 864.056C731.978 864.49 733.456 865.5 734.5 865.5" stroke="white" stroke-linecap="round" stroke-linejoin="round"/>
<path d="M734 865.75C733.047 866.733 732.189 867.81 731.361 868.875C730.514 869.964 729.042 870.804 728.444 872C727.911 873.067 727.012 874.116 726.361 875.139C725.622 876.3 725.515 877.723 724.875 878.875C723.624 881.126 723.615 885.356 724.875 887.625C726.162 889.942 725.734 893.09 726.806 895.5C728.528 899.376 731.967 902.082 734 905.639C734.593 906.677 735.397 907.033 736.306 907.694C736.624 907.926 738.745 908.773 739.056 908.556C739.944 907.934 741.578 907.845 742.611 907.375C743.679 906.89 744.798 906.608 745.861 906.125C747.965 905.169 750.121 905.359 752.125 906.25C753.086 906.677 754.9 907.574 755.444 908.5C755.699 908.933 756.255 909.283 756.611 909.639C757.099 910.127 757.34 910.927 757.806 911.444C758.493 912.208 759.795 913.892 760.014 914.875C760.122 915.363 760.944 916.071 761.25 916.5C761.758 917.211 762.484 917.746 762.944 918.5C763.742 919.805 765.379 920.672 766.375 921.889C767.546 923.32 768.938 925.351 770.375 926.5C771.473 927.378 772.736 929.644 773.361 930.861C774.248 932.589 774.969 934.164 775.625 936C776.183 937.563 776.431 939.154 776.944 940.694C777.386 942.018 777.777 943.631 778.5 944.806C780.42 947.926 779.5 953.108 779.5 956.611C779.5 958.825 779.671 960.985 779.75 963.194C779.784 964.147 779.802 965.596 780.125 966.5C780.531 967.636 780.268 968.179 780.75 966.25" stroke="white" stroke-linecap="round" stroke-linejoin="round"/>
<path d="M716 832.25C716.782 831.792 717.874 831.286 718.806 831.25C719.698 831.216 720.332 831.418 721 830.75" stroke="white" stroke-linecap="round" stroke-linejoin="round"/>
<path d="M722.5 832C725.48 832 728.566 833.429 730.806 835.444C732.721 837.169 735.285 839.278 737.861 840.014C739.141 840.379 740.442 841.582 741.611 842.25C742.364 842.68 742.977 843.252 743.75 843.639C744.171 843.85 745.244 844.305 745.5 844.625C746.203 845.504 748.234 845.563 749.139 846.139C750.098 846.749 754 847.086 754 848.5" stroke="white" stroke-linecap="round" stroke-linejoin="round"/>
<path d="M768.25 599C764.763 596.874 762.621 595.142 761.306 591.194C760.723 589.445 760.75 587.595 760.75 585.75C760.75 584.616 760.585 582.241 761.75 581.556C763.359 580.609 765.177 580.308 766.889 579.5C769.753 578.148 772.303 576.526 775.056 574.944C778.94 572.713 783.22 571.414 787.25 569.5C788.687 568.818 790.395 568.509 791.931 568.111C793.069 567.816 794.321 567.25 795.5 567.25" stroke="white" stroke-linecap="round" stroke-linejoin="round"/>
<path d="M768.5 854.5C769.525 856.181 771.056 857.572 772 859.25C772.389 859.942 772.977 860.912 773.5 861.5C773.741 861.771 773.995 863.01 774.25 862.5" stroke="white" stroke-linecap="round" stroke-linejoin="round"/>
<path d="M771 863C767.949 862.33 764.859 861.423 761.75 861.25C759.582 861.13 756.635 860.818 754.5 861.306C751.57 861.975 748.431 861.571 745.528 862.5C744.035 862.978 742.594 863.461 741.111 864C740.321 864.287 736.726 865.425 739.5 864.5" stroke="white" stroke-linecap="round" stroke-linejoin="round"/>
<path d="M774 872C771.525 873.634 769.483 875.267 767.389 877.361C766.791 877.959 766.277 878.492 765.556 879C765.231 879.228 763.663 880.866 764.5 879.75" stroke="white" stroke-linecap="round" stroke-linejoin="round"/>
<path d="M732 901.75C734.166 902.163 735.807 902.11 737.75 901.139C739.264 900.382 742.569 899.224 743 897.5" stroke="white" stroke-linecap="round" stroke-linejoin="round"/>
<path d="M750.75 892.25C752.131 890.497 754.175 889.075 755.764 887.486C756.524 886.726 757.26 885.931 758.056 885.208C758.96 884.386 760.6 883.451 761 882.25" stroke="white" stroke-linecap="round" stroke-linejoin="round"/>
<path d="M768 597.5C770.498 595.078 773.18 593.07 775.625 590.625C777.037 589.213 778.219 587.666 779.75 586.375C781.02 585.303 782.491 583.966 783.306 582.5C784.606 580.159 788.072 578.024 790.375 577C791.778 576.377 793.17 575.647 794.625 575.111C796.465 574.433 798.615 573.59 800.25 572.5" stroke="white" stroke-linecap="round" stroke-linejoin="round"/>
<path d="M780.5 967.25C780.745 968.538 780.584 970.729 781.444 971.806C782.01 972.512 782.422 974.122 782.861 975C784.058 977.394 785.66 979.669 787.5 981.611C790.168 984.428 791.451 988.19 793.736 991.236C795.963 994.205 798.416 997.198 801.556 999.25C804.826 1001.39 807.971 1003.58 811.333 1005.6C815.263 1007.95 819.739 1008.25 824.194 1008.25C829.305 1008.25 834.382 1007 839.486 1007C844.689 1007 849.921 1007.19 855.083 1006.56C865.815 1005.23 877.082 1006.75 887.556 1003.81C889.96 1003.13 892.723 1003.05 895 1002C897.547 1000.83 901.002 1000.25 903.75 999.75C909.225 998.755 914.942 996.75 920.556 996.75C921.826 996.75 923.052 996.774 924.306 996.556C925.56 996.337 926.897 996.72 928.139 996.444C930.68 995.88 933.587 996.363 936.097 995.625C937.66 995.165 939.706 995.5 941.347 995.5C942.35 995.5 943.843 995.403 944.75 995.806C945.936 996.333 947.343 996.207 948.5 996.694C949.774 997.231 951.121 997.542 952.361 998.25C953.361 998.821 954.453 1000.11 955.014 1001.14C955.525 1002.08 957.646 1003.56 957.25 1004.75" stroke="white" stroke-linecap="round" stroke-linejoin="round"/>
<path d="M1159 674.75C1155.19 674.661 1153.21 671.958 1150.74 669.486C1148.35 667.102 1145.94 664.695 1143.56 662.306C1140.6 659.354 1134.35 653.781 1129.81 656.75C1126.38 658.991 1125.76 664.386 1126.94 667.944C1127.51 669.64 1129.44 670.803 1130.01 672.528C1130.94 675.308 1131.82 677.802 1130.25 680.611C1129.49 681.969 1128.47 683.234 1127.5 684.444C1126.58 685.582 1125.74 686.949 1124.75 688C1123.7 689.115 1123.2 690.602 1122.62 692C1121.85 693.885 1120.97 695.628 1120.5 697.625C1119.73 700.885 1117.25 703.352 1117 706.806C1116.85 708.92 1116.38 710.615 1117.89 712.403C1123.19 718.664 1131.19 712.059 1135.9 708.222C1138.94 705.75 1140.78 702.368 1143.56 699.694C1145.48 697.838 1147.62 695.983 1149.89 694.556C1150.56 694.136 1154.48 692.467 1154.25 692" stroke="white" stroke-linecap="round" stroke-linejoin="round"/>
<path d="M1110 677.75C1110.98 679.286 1111.15 680.575 1111.24 682.389C1111.26 682.857 1111.06 683.664 1111.5 683" stroke="white" stroke-linecap="round" stroke-linejoin="round"/>
<path d="M1110.25 733.25C1110.25 736.671 1110.67 739.065 1112.14 742C1113.13 743.981 1114.42 745.631 1115.76 747.389C1117.57 749.755 1118.93 751.946 1121.25 753.806C1123.46 755.571 1125.62 757.094 1128.14 758.389C1132.93 760.851 1138.64 762.25 1144.04 762.25C1146.9 762.25 1149.78 762.332 1152.64 762.25C1153.73 762.219 1154.77 761.75 1155.88 761.75C1156.44 761.75 1158.45 761.223 1158 761" stroke="white" stroke-linecap="round" stroke-linejoin="round"/>
<path d="M1135.75 743C1138.22 743.056 1140.76 743.978 1143.19 743.194C1145.35 742.5 1147.7 741.938 1149.75 741C1151.65 740.129 1157.25 738.712 1157.25 736" stroke="white" stroke-linecap="round" stroke-linejoin="round"/>
<path d="M1138 728.25C1138.91 724.02 1144.17 722.744 1147.92 722.486C1149.26 722.394 1150.67 721.98 1151.94 721.556C1152.47 721.379 1153.98 720.433 1152.75 721.25" stroke="white" stroke-linecap="round" stroke-linejoin="round"/>
<path d="M1157.5 657.5C1155.41 655.982 1153.75 653.837 1152.51 651.514C1150.76 648.22 1149 644.87 1149 641C1149 635.901 1147.33 630.945 1147.94 625.806C1148.17 623.94 1147.79 622.031 1148.31 620.194C1148.83 618.328 1149.3 616.403 1150.06 614.611C1150.81 612.822 1151.61 611.002 1152.44 609.25C1152.57 608.98 1152.95 608.527 1152.5 608.75" stroke="white" stroke-linecap="round" stroke-linejoin="round"/>
<path d="M957 1004.5C959.619 1008.1 962.305 1010.94 963.528 1015.22C964.551 1018.8 966.311 1022.47 967.611 1026.11C969.139 1030.39 972.759 1033.33 974.5 1037.25C975.213 1038.85 977.49 1040.99 978.75 1042.25C980.516 1044.02 982.214 1045.71 984 1047.5C993.479 1056.98 1001.86 1066.99 1007.89 1079.06C1013.04 1089.37 1019.15 1099.16 1025.28 1108.89C1028.67 1114.28 1030.91 1119.83 1033.75 1125.5C1036.51 1131.03 1039.81 1137.32 1041.61 1143.22C1043.43 1149.16 1047.03 1154.47 1049.25 1160.25C1050.21 1162.75 1051.2 1165.08 1052 1167.69C1052.76 1170.17 1054.31 1173 1054.5 1175.61C1054.66 1177.73 1055.5 1179.8 1055.5 1182C1055.5 1184.84 1055.5 1187.69 1055.5 1190.53C1055.5 1196.26 1054.62 1202.95 1055.89 1208.5C1056.62 1211.7 1055.7 1215.37 1056.89 1218.5C1057.34 1219.67 1056.96 1221.38 1057 1222.61C1057.06 1224.49 1057.5 1226.31 1057.5 1228.25C1057.5 1230.92 1057.8 1233.83 1057.47 1236.47C1057.31 1237.78 1057 1244 1056 1244.5" stroke="white" stroke-linecap="round" stroke-linejoin="round"/>
<path d="M1011 1087C1005.44 1092.56 1000.52 1099.21 993.5 1103.11C986.675 1106.9 981.177 1114.15 977.75 1121C974.101 1128.3 968.125 1132.8 962.722 1138.5C959.339 1142.07 955.373 1146.63 953 1151C950.331 1155.92 945.628 1159.51 942.278 1163.97C939.334 1167.9 935.697 1171.07 933.278 1175.47C930.692 1180.17 927.297 1184.33 925.028 1189.25C920.428 1199.22 914.241 1208.32 909.389 1218.22C905.09 1226.99 901.821 1236.15 898.75 1245.36C896.418 1252.36 893.31 1259.03 890.444 1265.83C889.201 1268.79 887.655 1271.69 886.222 1274.56C885.16 1276.68 881.824 1282.82 885 1277" stroke="white" stroke-linecap="round" stroke-linejoin="round"/>
<path d="M1119.5 1274C1120.4 1272.88 1121.19 1271.54 1122.5 1270.89C1122.92 1270.68 1123.73 1270.59 1124 1270.25C1124.88 1269.15 1126.73 1269.27 1127.75 1268.25C1130.29 1265.71 1135.13 1264.37 1138.39 1263C1140.1 1262.28 1141.92 1261.65 1143.53 1260.75C1145.78 1259.48 1148.47 1259.48 1150.69 1258.28C1151.85 1257.66 1153.71 1257.14 1155 1257C1155.58 1256.94 1158.53 1256 1157 1256" stroke="white" stroke-linecap="round" stroke-linejoin="round"/>
<path d="M1102.5 885.5C1098.49 889.625 1094.79 894.214 1090.5 898.028C1086.71 901.394 1083.21 905.938 1078.89 908.611C1074.89 911.088 1071.88 915.702 1068.22 918.778C1063.56 922.691 1059.08 926.681 1054.22 930.389C1049.15 934.259 1043.2 937.186 1037.75 940.5C1031.02 944.598 1023.46 947.123 1016.56 950.889C1008.96 955.033 1000.95 958.307 993.806 963.25C992.975 963.825 991.034 964.583 990.5 965.25C990.014 965.858 985.848 968.152 987.5 966.5" stroke="white" stroke-linecap="round" stroke-linejoin="round"/>
<path d="M1146.5 578C1140.18 579.324 1136.28 585.581 1130.5 588.472C1125.47 590.986 1119.72 591.327 1114.33 592.611C1110.42 593.545 1108.79 595.34 1106.97 598.861C1105.96 600.828 1105.36 603.11 1104 604.889C1102.42 606.95 1099.34 607.194 1097.11 608.111C1090.93 610.657 1087.35 612.872 1084.78 619.194C1083.28 622.877 1085.16 625.601 1085.39 629.333C1085.82 636.233 1081.44 642.18 1078.5 648.056C1075.66 653.735 1073.11 657.242 1067.94 661.167C1065.78 662.811 1063.07 664.287 1062.25 667.028C1061.77 668.613 1061.3 670.264 1060.69 671.806C1059.38 675.176 1056.55 678.247 1054.39 681.111C1052.64 683.436 1052.31 685.292 1051.39 687.889C1049.8 692.363 1042.47 692.403 1041.56 697.444C1041.02 700.391 1043.63 703.552 1044.11 706.5C1044.92 711.459 1044.28 717.78 1043.22 722.694C1042.34 726.783 1039.96 729.547 1041.5 733.889C1042.21 735.89 1042.05 737.98 1041.72 740.056C1041.33 742.496 1041.6 744.283 1041.69 746.611C1041.74 747.781 1039.26 755.787 1038.5 753.5" stroke="white" stroke-linecap="round" stroke-linejoin="round"/>
<path d="M1000 723.5C1001.51 721.427 1001.36 720.377 1004 720" stroke="white" stroke-linecap="round" stroke-linejoin="round"/>
<path d="M1041.5 755C1039.84 755.796 1038.22 756.386 1036.5 757" stroke="white" stroke-linecap="round" stroke-linejoin="round"/>
<path d="M999 708.5C993.996 706.355 991.719 700.828 987.333 697.639C983.404 694.782 977.336 695 972.722 695C967.715 695 962.225 696.505 958.75 691.972C957.168 689.909 955.671 688.01 955 685.444C954.128 682.11 954.413 678.569 953.472 675.278C952.812 672.967 945.808 673.012 943.833 672.389C941.121 671.532 937.914 670.531 936.056 668.25C932.507 663.895 931.944 658.002 930.667 652.722C929.745 648.913 928.724 644.836 926.778 641.389C925.411 638.967 924.328 636.947 924.056 634.083C923.486 628.102 926.512 621.968 928.5 616.5C930.832 610.087 931.5 603.303 931.5 596.5C931.5 590.284 927.912 586.507 922.611 583.5C916.498 580.033 911.002 581.043 904.722 583.278C900.155 584.903 896.73 588.207 892.389 590C881.564 594.471 882.69 571.595 874.611 569.5C867.222 567.584 859.333 569.199 851.833 567.111C849.507 566.464 847.235 565.664 845 564.75C841.761 563.425 843.099 562.782 845 560.5" stroke="white" stroke-linecap="round" stroke-linejoin="round"/>
<path d="M840.5 556.5C837.216 554.578 834.21 554.822 830.444 555.25C823.373 556.054 819.301 553.778 814.639 548.583C812.266 545.94 809.667 543.203 807.611 540.306C806.456 538.678 806.086 536.61 804.889 535C801.046 529.832 793.981 528.602 788.944 525.056C784.479 521.912 780.719 519.948 775.25 519.472C771.769 519.17 770.212 521.763 768.278 524.25C767.382 525.402 766.67 526.552 765.611 527.611C764.416 528.807 761.129 526.129 763.5 528.5" stroke="white" stroke-linecap="round" stroke-linejoin="round"/>
<path d="M756.5 624C750.631 620.646 743.934 620.845 740.389 613.833C738.531 610.158 740.486 605.375 737.278 602.75C735.551 601.337 733.683 600.513 731.583 599.778C729.495 599.047 728.25 597.657 726.611 596.222C724.766 594.608 722.704 591.648 720.5 590.611C719.647 590.21 718.871 594.778 718.722 595.278C718.033 597.598 717.866 600.247 715.583 598.111C714.487 597.085 710.971 593.053 709.111 593.222C708.613 593.268 706.42 598.303 706.222 598.667C705.185 600.575 704.355 602.647 703.222 604.5C699.946 609.861 695.422 615.009 690.111 618.389C686.456 620.715 687.295 623.831 688.722 627.5C689.994 630.769 688.476 634.324 685.833 636.278C683.834 637.755 680.838 636.836 678.944 635.611C675.914 633.65 677.354 629.678 678.222 626.917C678.569 625.812 679.436 624.592 678.667 623.472C677.355 621.565 674.494 620.116 672.722 618.611C667.2 613.923 670.377 609.941 673.75 604.944C676.507 600.861 677.68 596.574 679 591.889C679.345 590.664 682.141 583.701 681.167 583C680.516 582.531 679.604 582.597 678.889 582.278C677.253 581.547 675.862 579.962 674.556 578.778C672.522 576.935 671.019 574.425 670.278 571.778C669.597 569.347 670.016 569.565 667.5 571.111C665.036 572.625 662.353 573.728 659.889 575.222C658.246 576.219 656.801 579 654.722 579C652.92 579 651.665 577.665 650.472 576.472C648.406 574.406 646.176 573.47 643.75 571.944C638.929 568.914 638.736 564.691 635.5 560.611C634.09 558.834 630.198 559.965 628.333 560.111C624.246 560.432 622.809 560.013 621.778 555.889C620.969 552.652 620.018 545.259 623.472 543.222C627.524 540.833 633.659 539.841 637 536.5C640.976 532.524 635.816 526.872 633.028 524.083C629.562 520.617 624.649 520.642 621.889 516.278C620.364 513.866 620 512.475 620 509.667C620 506.344 619.312 503.979 618.528 500.778C617.516 496.647 618.753 493.929 621.417 490.639C622.556 489.232 625.5 486.749 624.889 484.611C624.509 483.281 622.897 481.822 622.222 480.611C620.504 477.528 621 473.894 621 470.5C621 466.386 615.52 468.462 612.722 468.5C604.439 468.612 597.034 465.217 589.778 461.222C587.207 459.807 584.682 458.341 582.056 457.028C580.799 456.399 578.893 455.764 578.139 454.472C576.761 452.11 575.874 448.178 575 445.556C572.005 436.569 575.637 430.005 582.5 424C584.306 422.42 586.711 421.095 586.194 418.306C585.716 415.72 582.893 414.098 580.944 412.722C578.99 411.342 579.243 408.656 578.389 406.611C576.999 403.286 574.398 400.74 572.806 397.556C572.451 396.847 571.208 393.982 573.028 394.778C575.598 395.902 578.23 396.131 581 396.5" stroke="white" stroke-linecap="round" stroke-linejoin="round"/>
<path d="M583.5 394.5C583.616 391.436 584.752 388.556 584.778 385.5C584.799 383.003 583.843 380.898 583.5 378.5C583.097 375.678 582.973 373.608 584 370.889C584.992 368.263 585.5 366.054 585.5 363.25C585.5 359.767 590.945 359.79 593.167 359.278C597.756 358.219 594.267 349.248 594.028 345.778C593.657 340.407 600.682 341.325 604 339.5C608.366 337.098 610.5 330.621 610.5 326C610.5 321.676 611.807 318.802 615.222 316.278C618.116 314.139 621.017 312.757 623.694 310.278C626.944 307.269 629.387 303.832 632.889 301C634.983 299.307 635.961 296.387 637.722 294.306C638.775 293.061 640.293 292.19 641.222 290.889C643.082 288.286 645.052 284.823 640.722 283.778C638.433 283.225 634.639 283.757 635.611 280.111C636.574 276.5 642.034 273.988 645 272.222C648.569 270.098 650.08 266.616 652.5 263.389C655.223 259.759 656.474 256.974 653 253.5C651.282 251.782 648.653 249.989 647.889 247.611C646.576 243.527 648.6 240.846 652.278 239.25C655.109 238.021 657.774 237.34 660.833 237C662.559 236.808 663.075 236.479 662.889 234.667C662.357 229.485 657.483 222.487 659.833 217.472C660.706 215.61 661.851 213.497 663.028 211.806C664.3 209.976 667.227 209.073 669.111 208C672.466 206.09 676.083 204.331 679.806 203.25C682.889 202.355 688.189 201.255 687.611 197.5C686.78 192.097 690.093 189.991 695.417 191.056C700.368 192.046 706.547 193.428 709 187.5C711.258 182.044 715.957 180.865 720.028 177.472C723.653 174.451 727.903 171.392 732.667 170.611C734.823 170.258 736.991 170.951 738.972 169.833C741.102 168.632 746.434 163.434 749 166C750.231 167.231 750.782 167 752.694 167C753.296 167 755.527 165.973 755 166.5" stroke="white" stroke-linecap="round" stroke-linejoin="round"/>
<path d="M748.5 163.5C750.555 161.815 753.911 160.258 755.278 157.889C757.236 154.495 757.794 150.667 759.25 147.083C761.227 142.217 765.877 138.195 770.278 135.528C777.508 131.146 787.455 132.216 795.111 135C797.073 135.713 797.806 135.645 799.333 134.167C802.992 130.626 807.209 126.806 812.111 125.111C815.403 123.973 817.382 125.545 820.556 126.194C826.279 127.365 830.486 125.334 834.778 121.667C838.856 118.181 842.919 113.167 848.722 114.75C854.614 116.357 860.161 116.03 865.806 113.5C867.799 112.607 872.589 108.732 874.889 111.111C876.003 112.263 876.074 114.909 876.583 116.361C877.748 119.681 879.161 123.128 881.222 126C886.283 133.053 893.73 136.778 902.389 136.778C909.611 136.778 916.956 133.941 924 132.5C933.162 130.626 933.5 123.802 933.5 115.556C933.5 112.994 936.305 113.749 937.75 114.556C941.777 116.803 943.821 121.017 945.972 124.889C947.309 127.296 948.544 128.638 951 126.778C955.906 123.063 960.246 116.43 961.389 110.389C962.495 104.54 962.426 99.8032 967.333 95.5C971.567 91.7876 979.428 91.3483 984.667 90.7222C990.783 89.9913 996.541 89.778 1002.47 91.5C1008.63 93.2869 1014.28 96.493 1020.5 98.1667C1028.73 100.382 1035.93 97.0706 1042.92 92.8611C1049.74 88.7515 1055.09 85.5522 1062.83 83.7778C1065.84 83.0886 1068.73 82.3481 1071.78 81.8889C1074.86 81.4245 1078.08 79.6279 1081.28 80.1111C1083.36 80.425 1085.57 82.4954 1086.67 84.1667C1087.81 85.9066 1083.57 87.0164 1082 88" stroke="white" stroke-linecap="round" stroke-linejoin="round"/>
<rect x="0.5" y="0.5" width="1159" height="1298" stroke="white"/>
</g>
<defs>
<filter id="filter0_i" x="0" y="0" width="1160" height="1303" filterUnits="userSpaceOnUse" color-interpolation-filters="sRGB">
<feFlood flood-opacity="0" result="BackgroundImageFix"/>
<feBlend mode="normal" in="SourceGraphic" in2="BackgroundImageFix" result="shape"/>
<feColorMatrix in="SourceAlpha" type="matrix" values="0 0 0 0 0 0 0 0 0 0 0 0 0 0 0 0 0 0 127 0" result="hardAlpha"/>
<feOffset dy="4"/>
<feGaussianBlur stdDeviation="2"/>
<feComposite in2="hardAlpha" operator="arithmetic" k2="-1" k3="1"/>
<feColorMatrix type="matrix" values="0 0 0 0 0 0 0 0 0 0 0 0 0 0 0 0 0 0 0.25 0"/>
<feBlend mode="normal" in2="shape" result="effect1_innerShadow"/>
</filter>
</defs>
</svg>
