<svg width="589" height="1202" viewBox="0 0 589 1202" fill="none" xmlns="http://www.w3.org/2000/svg">
<path d="M196.5 451.75C195.822 454.989 194.917 458.203 194.056 461.389C193.444 463.653 192.284 465.707 191.694 468C190.841 471.32 189.064 474.552 188.556 477.944C188.125 480.818 186.938 483.648 186.75 486.556C186.668 487.827 186.183 489.094 186.014 490.361C185.876 491.396 185.855 492.432 185.556 493.444C184.768 496.102 184.366 499.068 183.806 501.806C182.876 506.351 181.087 511.432 182.194 516.139C183.421 521.353 184.506 526.373 186.944 531.25C187.902 533.166 189.183 534.882 189.806 537C190.589 539.664 192.042 542.189 192.944 544.806C193.605 546.72 194.623 548.557 195.194 550.5C195.721 552.292 196.843 553.821 197.194 555.667C197.425 556.879 197.992 559.267 197.444 560.5C197.212 561.023 197 562.073 197 562.639C197 563.226 196.876 563.681 196.75 564.25C196.593 564.955 196.229 565.328 197 564.75" stroke="black" stroke-width="2" stroke-linecap="round" stroke-linejoin="round"/>
<path d="M197.25 564.5C195.176 565.381 195.417 567.416 194.194 568.944C193.394 569.945 193.635 571.658 192.944 572.694C191.794 574.42 190.729 576.4 189.75 578.25C188.62 580.385 186.749 582.09 185.556 584C184.631 585.479 182.745 586.574 181.5 587.75C179.929 589.233 178.151 590.403 176.667 591.944C175.862 592.78 175.054 593.651 174.25 594.5C173.612 595.173 173.293 596.089 172.5 596.556C171.552 597.113 170.837 598.413 170.056 599.194C169.334 599.916 168.509 600.614 167.875 601.389C166.539 603.021 165.308 604.973 163.75 606.375C162.878 607.16 162.05 608.375 161.25 609.264C160.502 610.094 159.798 611.621 158.875 612.236C158.114 612.743 157.6 613.871 157.111 614.639C156.255 615.984 155.255 617.214 154.361 618.514C152.714 620.909 151.203 623.321 149.639 625.806C148.248 628.014 146.956 630.332 145.139 632.25C143.341 634.148 141.426 636.514 140 638.694C138.441 641.079 137.008 643.242 135 645.25C133.976 646.274 132.831 647.105 132 648.306C131.276 649.352 130.084 649.897 129.375 651C128.515 652.338 127.067 653.366 126.375 654.889C125.314 657.224 123.108 659.347 121.125 660.889C119.327 662.287 118.14 665.268 117.5 667.347C116.926 669.214 116.573 671.419 115.625 673.125C114.782 674.642 115.5 676.577 115.5 678.125C115.5 678.977 115.78 680.044 116.014 680.861C116.21 681.546 116.257 682.712 116.625 683.375C116.919 683.904 117.124 684.994 117.264 685.625C117.444 686.434 118.217 687.391 118.625 688.125C119.502 689.704 120.723 691.207 121.75 692.667C123.812 695.597 125.192 699.857 128.5 701.694C129.44 702.217 130.063 703.013 131 703.556C131.823 704.032 132.752 704.566 133.556 705.111C135.528 706.449 136.845 707.926 139.111 708.75C142.783 710.085 146.758 711.255 150.125 713.125C151.751 714.029 153.915 714.069 155.236 715.611C155.726 716.183 159.107 718.893 159.5 718.5" stroke="black" stroke-width="2" stroke-linecap="round" stroke-linejoin="round"/>
<path d="M141.25 697.5C141.708 695.364 142.937 693.62 145.056 692.806C146.534 692.237 148.759 690.615 150.306 690.5C152.234 690.357 154.016 690 156 690C157.769 690 159.667 689.789 161.389 690.194C164.939 691.03 168.471 691.666 171.75 693.306C174.666 694.764 176.994 697.494 179.25 699.75" stroke="black" stroke-width="2" stroke-linecap="round" stroke-linejoin="round"/>
<path d="M181.25 709C182.464 708.526 183.725 708.399 184.861 707.75C185.814 707.206 186.853 706.454 187.875 706C189.027 705.488 190.172 704.578 191.056 703.694C192.036 702.714 193.056 701.108 194.25 700.444C195.116 699.964 195.865 698.542 196.667 697.847C197.821 696.847 198.496 695.774 199.389 694.625C200.109 693.699 200.75 692.562 201.25 691.5C201.498 690.974 202.091 689.205 202.5 689" stroke="black" stroke-width="2" stroke-linecap="round" stroke-linejoin="round"/>
<path d="M195 660C196.975 660.771 198.074 661.574 199.5 663C200.064 663.564 200.665 664.439 200.944 665.194C201.082 665.566 201.75 667.2 201.75 666.5" stroke="black" stroke-width="2" stroke-linecap="round" stroke-linejoin="round"/>
<path d="M230.25 582C230.929 580.415 232.276 578.711 233.875 578C234.576 577.689 234.943 576.715 235.556 576.25C236.195 575.764 237.09 575.106 237.5 574.389C238.437 572.748 240.693 571.602 241.694 570C242.143 569.283 243.044 569.08 243.514 568.375C243.946 567.726 244.919 567.098 245.556 566.639C246.961 565.627 248.794 563.871 249.625 562.375C250.519 560.767 252.472 559.59 253.611 558.125C254.689 556.739 256.079 555.91 257.361 554.75C259.064 553.21 261.28 551.682 263.25 550.5" stroke="black" stroke-width="2" stroke-linecap="round" stroke-linejoin="round"/>
<path d="M215.75 554.5C217.738 553.337 220.712 553.563 223 553.236C224.172 553.069 225.291 552.284 226.5 552.25C227.773 552.215 228.755 551.375 230 551.25C232.338 551.016 234.359 549.328 236.75 548.986C238.381 548.753 240.005 548.25 241.694 548.25C245.432 548.25 249.975 548.296 253.556 547.194C254.408 546.932 255.406 546.81 256.292 546.736C257.501 546.635 258.645 546 259.875 546C261.175 546 264.167 545.472 265.25 544.75" stroke="black" stroke-width="2" stroke-linecap="round" stroke-linejoin="round"/>
<path d="M214.75 545.75C213.933 546.388 213.588 547.227 213.764 546C213.851 545.388 214.302 544.432 214.555 543.861C215.025 542.805 215.191 541.578 215.555 540.444C216.015 539.014 216.482 537.371 217.444 536.194C218.129 535.358 219.25 532.419 219.25 533.5" stroke="black" stroke-width="2" stroke-linecap="round" stroke-linejoin="round"/>
<path d="M225.75 562.5C226.325 565.445 227.847 566.717 229.389 569.139C230.145 570.328 230.887 571.387 231.875 572.375C232.572 573.072 234.081 573.912 234.5 574.75" stroke="black" stroke-width="2" stroke-linecap="round" stroke-linejoin="round"/>
<path d="M234.25 535.75C239.46 535.626 244.31 534.934 249.389 533.806C251.325 533.375 253.812 533 255.806 533C256.626 533 260.971 533.558 261.25 533" stroke="black" stroke-width="2" stroke-linecap="round" stroke-linejoin="round"/>
<path d="M216.25 529.25C216.05 528.203 216.035 527.209 215.555 526.25C215.272 525.683 214.9 524.989 214.764 524.375C214.543 523.381 213.581 521.939 214.5 521.25" stroke="black" stroke-width="2" stroke-linecap="round" stroke-linejoin="round"/>
<path d="M159.5 718.5C159.701 719.533 160 720.362 160 721.375C160 722.157 159.75 722.918 159.75 723.639C159.75 725.834 158.108 727.673 157.194 729.5C156.448 730.992 155.454 732.342 154.889 733.875C154.273 735.547 153.491 738.036 152.125 739.25C151.528 739.781 150.884 741.184 150.5 741.889C150.113 742.599 149.141 743.22 148.556 743.806C147.47 744.891 145.647 746.539 145.125 748C144.443 749.908 142.668 751.582 141.25 753C140.025 754.225 138.5 757.036 138.5 758.806C138.5 760.218 138.208 761.998 138.514 763.375C138.919 765.196 139.826 766.85 140.694 768.5C142.396 771.734 144.682 774.288 146.889 777.125C147.85 778.361 149.017 779.41 149.806 780.75C150.821 782.476 153.297 782.748 154.875 783.625C155.657 784.059 156.877 784.056 157.75 784.444C158.413 784.739 159.293 784.742 160 785.056C160.978 785.49 162.456 786.5 163.5 786.5" stroke="black" stroke-width="2" stroke-linecap="round" stroke-linejoin="round"/>
<path d="M163 786.75C162.047 787.733 161.189 788.81 160.361 789.875C159.514 790.964 158.042 791.804 157.444 793C156.911 794.067 156.012 795.116 155.361 796.139C154.622 797.3 154.515 798.723 153.875 799.875C152.624 802.126 152.615 806.356 153.875 808.625C155.162 810.942 154.734 814.09 155.806 816.5C157.528 820.376 160.967 823.082 163 826.639C163.593 827.677 164.397 828.033 165.306 828.694C165.624 828.926 167.745 829.773 168.056 829.556C168.944 828.934 170.578 828.845 171.611 828.375C172.679 827.89 173.798 827.608 174.861 827.125C176.965 826.169 179.121 826.359 181.125 827.25C182.086 827.677 183.9 828.574 184.444 829.5C184.699 829.933 185.255 830.283 185.611 830.639C186.099 831.127 186.34 831.927 186.806 832.444C187.493 833.208 188.795 834.892 189.014 835.875C189.122 836.363 189.944 837.071 190.25 837.5C190.758 838.211 191.484 838.746 191.944 839.5C192.742 840.805 194.379 841.672 195.375 842.889C196.546 844.32 197.938 846.351 199.375 847.5C200.473 848.378 201.736 850.644 202.361 851.861C203.248 853.589 203.969 855.164 204.625 857C205.183 858.563 205.431 860.154 205.944 861.694C206.386 863.018 206.777 864.631 207.5 865.806C209.42 868.926 208.5 874.108 208.5 877.611C208.5 879.825 208.671 881.985 208.75 884.194C208.784 885.147 208.802 886.596 209.125 887.5C209.531 888.636 209.268 889.179 209.75 887.25" stroke="black" stroke-width="2" stroke-linecap="round" stroke-linejoin="round"/>
<path d="M145 753.25C145.782 752.792 146.874 752.286 147.806 752.25C148.698 752.216 149.332 752.418 150 751.75" stroke="black" stroke-width="2" stroke-linecap="round" stroke-linejoin="round"/>
<path d="M151.5 753C154.48 753 157.566 754.429 159.806 756.444C161.721 758.169 164.285 760.278 166.861 761.014C168.141 761.379 169.442 762.582 170.611 763.25C171.364 763.68 171.977 764.252 172.75 764.639C173.171 764.85 174.244 765.305 174.5 765.625C175.203 766.504 177.234 766.563 178.139 767.139C179.098 767.749 183 768.086 183 769.5" stroke="black" stroke-width="2" stroke-linecap="round" stroke-linejoin="round"/>
<path d="M197.25 520C193.763 517.874 191.621 516.142 190.306 512.194C189.723 510.445 189.75 508.595 189.75 506.75C189.75 505.616 189.585 503.241 190.75 502.556C192.359 501.609 194.177 501.308 195.889 500.5C198.753 499.148 201.303 497.526 204.056 495.944C207.94 493.713 212.22 492.414 216.25 490.5C217.687 489.818 219.395 489.509 220.931 489.111C222.069 488.816 223.321 488.25 224.5 488.25" stroke="black" stroke-width="2" stroke-linecap="round" stroke-linejoin="round"/>
<path d="M197.5 775.5C198.525 777.181 200.056 778.572 201 780.25C201.389 780.942 201.977 781.912 202.5 782.5C202.741 782.771 202.995 784.01 203.25 783.5" stroke="black" stroke-width="2" stroke-linecap="round" stroke-linejoin="round"/>
<path d="M200 784C196.949 783.33 193.859 782.423 190.75 782.25C188.582 782.13 185.634 781.818 183.5 782.306C180.57 782.975 177.431 782.571 174.528 783.5C173.035 783.978 171.594 784.461 170.111 785C169.321 785.287 165.726 786.425 168.5 785.5" stroke="black" stroke-width="2" stroke-linecap="round" stroke-linejoin="round"/>
<path d="M203 793C200.525 794.634 198.483 796.267 196.389 798.361C195.791 798.959 195.277 799.492 194.556 800C194.231 800.228 192.663 801.866 193.5 800.75" stroke="black" stroke-width="2" stroke-linecap="round" stroke-linejoin="round"/>
<path d="M161 822.75C163.166 823.163 164.807 823.11 166.75 822.139C168.264 821.382 171.569 820.224 172 818.5" stroke="black" stroke-width="2" stroke-linecap="round" stroke-linejoin="round"/>
<path d="M179.75 813.25C181.131 811.497 183.175 810.075 184.764 808.486C185.524 807.726 186.26 806.931 187.056 806.208C187.96 805.386 189.6 804.451 190 803.25" stroke="black" stroke-width="2" stroke-linecap="round" stroke-linejoin="round"/>
<path d="M197 518.5C199.498 516.078 202.18 514.07 204.625 511.625C206.037 510.213 207.219 508.666 208.75 507.375C210.02 506.303 211.491 504.966 212.306 503.5C213.606 501.159 217.072 499.024 219.375 498C220.778 497.377 222.17 496.647 223.625 496.111C225.465 495.433 227.615 494.59 229.25 493.5" stroke="black" stroke-width="2" stroke-linecap="round" stroke-linejoin="round"/>
<path d="M209.5 888.25C209.745 889.538 209.584 891.729 210.444 892.806C211.01 893.512 211.422 895.122 211.861 896C213.058 898.394 214.66 900.669 216.5 902.611C219.168 905.428 220.451 909.19 222.736 912.236C224.963 915.205 227.416 918.198 230.556 920.25C233.826 922.388 236.971 924.58 240.333 926.597C244.263 928.955 248.739 929.25 253.194 929.25C258.305 929.25 263.382 928 268.486 928C273.689 928 278.921 928.191 284.083 927.556C294.815 926.235 306.082 927.751 316.556 924.806C318.96 924.129 321.723 924.046 324 923C326.547 921.83 330.002 921.25 332.75 920.75C338.225 919.755 343.942 917.75 349.556 917.75C350.826 917.75 352.052 917.774 353.306 917.556C354.56 917.337 355.897 917.72 357.139 917.444C359.68 916.88 362.587 917.363 365.097 916.625C366.66 916.165 368.706 916.5 370.347 916.5C371.35 916.5 372.843 916.403 373.75 916.806C374.936 917.333 376.343 917.207 377.5 917.694C378.774 918.231 380.121 918.542 381.361 919.25C382.361 919.821 383.453 921.111 384.014 922.139C384.525 923.075 386.646 924.562 386.25 925.75" stroke="black" stroke-width="2" stroke-linecap="round" stroke-linejoin="round"/>
<path d="M588 595.75C584.187 595.661 582.208 592.958 579.736 590.486C577.352 588.102 574.945 585.695 572.555 583.306C569.604 580.354 563.346 574.781 558.805 577.75C555.378 579.991 554.758 585.386 555.944 588.944C556.51 590.64 558.439 591.803 559.014 593.528C559.941 596.308 560.823 598.802 559.25 601.611C558.49 602.969 557.474 604.234 556.5 605.444C555.585 606.582 554.743 607.949 553.75 609C552.697 610.115 552.197 611.602 551.625 613C550.854 614.885 549.97 616.628 549.5 618.625C548.733 621.885 546.247 624.352 546 627.806C545.849 629.92 545.376 631.615 546.889 633.403C552.187 639.664 560.194 633.059 564.903 629.222C567.937 626.75 569.783 623.368 572.555 620.694C574.481 618.838 576.618 616.983 578.889 615.556C579.556 615.136 583.483 613.467 583.25 613" stroke="black" stroke-width="2" stroke-linecap="round" stroke-linejoin="round"/>
<path d="M539 598.75C539.983 600.286 540.145 601.575 540.236 603.389C540.259 603.857 540.057 604.664 540.5 604" stroke="black" stroke-width="2" stroke-linecap="round" stroke-linejoin="round"/>
<path d="M539.25 654.25C539.25 657.671 539.671 660.065 541.139 663C542.129 664.981 543.425 666.631 544.764 668.389C546.566 670.755 547.925 672.946 550.25 674.806C552.457 676.571 554.617 678.094 557.139 679.389C561.934 681.851 567.641 683.25 573.042 683.25C575.903 683.25 578.778 683.332 581.639 683.25C582.729 683.219 583.771 682.75 584.875 682.75C585.441 682.75 587.447 682.223 587 682" stroke="black" stroke-width="2" stroke-linecap="round" stroke-linejoin="round"/>
<path d="M564.75 664C567.224 664.056 569.755 664.978 572.194 664.194C574.354 663.5 576.697 662.938 578.75 662C580.655 661.129 586.25 659.712 586.25 657" stroke="black" stroke-width="2" stroke-linecap="round" stroke-linejoin="round"/>
<path d="M567 649.25C567.906 645.02 573.174 643.744 576.917 643.486C578.258 643.394 579.67 642.98 580.944 642.556C581.474 642.379 582.976 641.433 581.75 642.25" stroke="black" stroke-width="2" stroke-linecap="round" stroke-linejoin="round"/>
<path d="M586.5 578.5C584.412 576.982 582.753 574.837 581.514 572.514C579.757 569.22 578 565.87 578 562C578 556.901 576.331 551.945 576.944 546.806C577.167 544.94 576.79 543.031 577.306 541.194C577.83 539.328 578.304 537.403 579.056 535.611C579.806 533.822 580.61 532.002 581.444 530.25C581.573 529.98 581.947 529.527 581.5 529.75" stroke="black" stroke-width="2" stroke-linecap="round" stroke-linejoin="round"/>
<path d="M386 925.5C388.619 929.101 391.305 931.942 392.528 936.222C393.551 939.805 395.311 943.472 396.611 947.111C398.139 951.389 401.759 954.333 403.5 958.25C404.213 959.855 406.49 961.99 407.75 963.25C409.516 965.016 411.214 966.714 413 968.5C422.479 977.979 430.856 987.989 436.889 1000.06C442.044 1010.37 448.15 1020.16 454.278 1029.89C457.672 1035.28 459.915 1040.83 462.75 1046.5C465.514 1052.03 468.807 1058.32 470.611 1064.22C472.426 1070.16 476.027 1075.47 478.25 1081.25C479.212 1083.75 480.195 1086.08 481 1088.69C481.76 1091.17 483.306 1094 483.5 1096.61C483.657 1098.73 484.5 1100.8 484.5 1103C484.5 1105.84 484.5 1108.69 484.5 1111.53C484.5 1117.26 483.62 1123.95 484.889 1129.5C485.621 1132.7 484.695 1136.37 485.889 1139.5C486.336 1140.67 485.957 1142.38 486 1143.61C486.065 1145.49 486.5 1147.31 486.5 1149.25C486.5 1151.92 486.803 1154.83 486.472 1157.47C486.309 1158.78 486.004 1165 485 1165.5" stroke="black" stroke-width="2" stroke-linecap="round" stroke-linejoin="round"/>
<path d="M440 1008C434.442 1013.56 429.523 1020.21 422.5 1024.11C415.675 1027.9 410.177 1035.15 406.75 1042C403.101 1049.3 397.125 1053.8 391.722 1059.5C388.339 1063.07 384.373 1067.63 382 1072C379.331 1076.92 374.628 1080.51 371.278 1084.97C368.334 1088.9 364.697 1092.07 362.278 1096.47C359.692 1101.17 356.297 1105.33 354.028 1110.25C349.428 1120.22 343.241 1129.32 338.389 1139.22C334.09 1147.99 330.821 1157.15 327.75 1166.36C325.418 1173.36 322.31 1180.03 319.444 1186.83C318.201 1189.79 316.655 1192.69 315.222 1195.56C314.16 1197.68 310.824 1203.82 314 1198" stroke="black" stroke-width="2" stroke-linecap="round" stroke-linejoin="round"/>
<path d="M548.5 1195C549.402 1193.88 550.193 1192.54 551.5 1191.89C551.919 1191.68 552.725 1191.59 553 1191.25C553.883 1190.15 555.728 1190.27 556.75 1189.25C559.29 1186.71 564.126 1185.37 567.389 1184C569.099 1183.28 570.922 1182.65 572.528 1181.75C574.782 1180.48 577.469 1180.48 579.694 1179.28C580.846 1178.66 582.707 1178.14 584 1178C584.579 1177.94 587.531 1177 586 1177" stroke="black" stroke-width="2" stroke-linecap="round" stroke-linejoin="round"/>
<path d="M531.5 806.5C527.49 810.625 523.791 815.214 519.5 819.028C515.713 822.394 512.206 826.938 507.889 829.611C503.888 832.088 500.884 836.702 497.222 839.778C492.564 843.691 488.081 847.681 483.222 851.389C478.152 855.259 472.195 858.186 466.75 861.5C460.017 865.598 452.46 868.123 445.556 871.889C437.957 876.033 429.946 879.307 422.806 884.25C421.975 884.825 420.034 885.583 419.5 886.25C419.014 886.858 414.848 889.152 416.5 887.5" stroke="black" stroke-width="2" stroke-linecap="round" stroke-linejoin="round"/>
<path d="M575.5 499C569.175 500.324 565.283 506.581 559.5 509.472C554.472 511.986 548.717 512.327 543.333 513.611C539.416 514.545 537.79 516.34 535.972 519.861C534.957 521.828 534.364 524.11 533 525.889C531.42 527.95 528.338 528.194 526.111 529.111C519.928 531.657 516.354 533.872 513.778 540.194C512.277 543.877 514.158 546.601 514.389 550.333C514.816 557.233 510.438 563.18 507.5 569.056C504.66 574.735 502.111 578.242 496.944 582.167C494.78 583.811 492.072 585.287 491.25 588.028C490.774 589.613 490.297 591.264 489.694 592.806C488.375 596.176 485.546 599.247 483.389 602.111C481.639 604.436 481.31 606.292 480.389 608.889C478.801 613.363 471.472 613.403 470.555 618.444C470.02 621.391 472.629 624.552 473.111 627.5C473.923 632.459 473.282 638.78 472.222 643.694C471.34 647.783 468.956 650.547 470.5 654.889C471.211 656.89 471.052 658.98 470.722 661.056C470.334 663.496 470.605 665.283 470.694 667.611C470.739 668.781 468.262 676.787 467.5 674.5" stroke="black" stroke-width="2" stroke-linecap="round" stroke-linejoin="round"/>
<path d="M429 644.5C430.507 642.427 430.362 641.377 433 641" stroke="black" stroke-width="2" stroke-linecap="round" stroke-linejoin="round"/>
<path d="M470.5 676C468.844 676.796 467.219 677.386 465.5 678" stroke="black" stroke-width="2" stroke-linecap="round" stroke-linejoin="round"/>
<path d="M428 629.5C422.995 627.355 420.719 621.828 416.333 618.639C412.404 615.782 406.336 616 401.722 616C396.715 616 391.225 617.505 387.75 612.972C386.168 610.909 384.671 609.01 384 606.444C383.128 603.11 383.413 599.569 382.472 596.278C381.812 593.967 374.808 594.012 372.833 593.389C370.121 592.532 366.914 591.531 365.056 589.25C361.507 584.895 360.944 579.002 359.667 573.722C358.745 569.913 357.724 565.836 355.778 562.389C354.411 559.967 353.328 557.947 353.056 555.083C352.486 549.102 355.512 542.968 357.5 537.5C359.832 531.087 360.5 524.303 360.5 517.5C360.5 511.284 356.912 507.507 351.611 504.5C345.497 501.033 340.002 502.043 333.722 504.278C329.155 505.903 325.73 509.207 321.389 511C310.564 515.471 311.69 492.595 303.611 490.5C296.222 488.584 288.332 490.199 280.833 488.111C278.507 487.464 276.235 486.664 274 485.75C270.761 484.425 272.099 483.782 274 481.5" stroke="black" stroke-width="2" stroke-linecap="round" stroke-linejoin="round"/>
<path d="M269.5 477.5C266.216 475.578 263.21 475.822 259.444 476.25C252.373 477.054 248.301 474.778 243.639 469.583C241.266 466.94 238.667 464.203 236.611 461.306C235.456 459.678 235.086 457.609 233.889 456C230.046 450.832 222.981 449.602 217.944 446.056C213.479 442.912 209.719 440.948 204.25 440.472C200.769 440.169 199.212 442.762 197.278 445.25C196.382 446.402 195.67 447.552 194.611 448.611C193.416 449.806 190.129 447.129 192.5 449.5" stroke="black" stroke-width="2" stroke-linecap="round" stroke-linejoin="round"/>
<path d="M185.5 545C179.631 541.646 172.934 541.845 169.389 534.833C167.531 531.158 169.486 526.375 166.278 523.75C164.551 522.337 162.683 521.513 160.583 520.778C158.495 520.047 157.25 518.657 155.611 517.222C153.766 515.608 151.704 512.648 149.5 511.611C148.647 511.21 147.871 515.778 147.722 516.278C147.032 518.598 146.866 521.247 144.583 519.111C143.486 518.085 139.971 514.053 138.111 514.222C137.612 514.268 135.42 519.303 135.222 519.667C134.185 521.575 133.355 523.647 132.222 525.5C128.946 530.861 124.422 536.009 119.111 539.389C115.456 541.715 116.295 544.831 117.722 548.5C118.994 551.769 117.476 555.324 114.833 557.278C112.834 558.755 109.838 557.836 107.944 556.611C104.914 554.65 106.354 550.678 107.222 547.917C107.569 546.812 108.436 545.592 107.667 544.472C106.355 542.565 103.494 541.116 101.722 539.611C96.2002 534.923 99.3772 530.941 102.75 525.944C105.506 521.861 106.68 517.574 108 512.889C108.345 511.664 111.141 504.701 110.167 504C109.516 503.531 108.604 503.597 107.889 503.278C106.253 502.547 104.862 500.962 103.555 499.778C101.522 497.935 100.019 495.425 99.2777 492.778C98.597 490.347 99.0162 490.565 96.4999 492.111C94.0361 493.625 91.3531 494.728 88.8888 496.222C87.2457 497.219 85.8007 500 83.7221 500C81.9203 500 80.6647 498.665 79.4721 497.472C77.4058 495.406 75.1763 494.47 72.7499 492.944C67.9286 489.914 67.7356 485.691 64.4999 481.611C63.0901 479.834 59.1975 480.965 57.3333 481.111C53.2459 481.432 51.8086 481.013 50.7777 476.889C49.9685 473.652 49.018 466.259 52.4721 464.222C56.5236 461.833 62.6585 460.841 65.9999 457.5C69.9762 453.524 64.8163 447.872 62.0277 445.083C58.5615 441.617 53.6485 441.642 50.8888 437.278C49.3638 434.866 48.9999 433.475 48.9999 430.667C48.9999 427.344 48.3116 424.979 47.5277 421.778C46.5162 417.647 47.7529 414.929 50.4166 411.639C51.5557 410.232 54.4997 407.749 53.8888 405.611C53.5087 404.281 51.8972 402.822 51.2221 401.611C49.5038 398.528 49.9999 394.894 49.9999 391.5C49.9999 387.386 44.5204 389.462 41.7221 389.5C33.4394 389.612 26.034 386.217 18.7777 382.222C16.2068 380.807 13.6816 379.341 11.0555 378.028C9.7988 377.399 7.89249 376.764 7.13881 375.472C5.7611 373.11 4.87399 369.178 3.99992 366.556C1.00445 357.569 4.63683 351.005 11.4999 345C13.3062 343.42 15.7109 342.095 15.1944 339.306C14.7156 336.72 11.8934 335.098 9.94437 333.722C7.98947 332.342 8.24339 329.656 7.38881 327.611C5.99903 324.286 3.39777 321.74 1.80548 318.556C1.45128 317.847 0.207816 314.982 2.0277 315.778C4.59824 316.902 7.22962 317.131 9.99992 317.5" stroke="black" stroke-width="2" stroke-linecap="round" stroke-linejoin="round"/>
<path d="M12.5 315.5C12.6156 312.436 13.7523 309.556 13.7778 306.5C13.7986 304.003 12.8426 301.898 12.5 299.5C12.0968 296.678 11.9729 294.608 13 291.889C13.9922 289.263 14.5 287.054 14.5 284.25C14.5 280.767 19.9455 280.79 22.1667 280.278C26.7561 279.219 23.2671 270.248 23.0278 266.778C22.6574 261.407 29.6819 262.325 33 260.5C37.3664 258.098 39.5 251.621 39.5 247C39.5 242.676 40.8071 239.802 44.2222 237.278C47.1159 235.139 50.0167 233.757 52.6944 231.278C55.9438 228.269 58.3866 224.832 61.8889 222C63.9825 220.307 64.9614 217.386 66.7222 215.306C67.7755 214.061 69.2927 213.19 70.2222 211.889C72.0817 209.286 74.0516 205.823 69.7222 204.778C67.4331 204.225 63.6388 204.757 64.6111 201.111C65.574 197.5 71.0336 194.988 74 193.222C77.5687 191.098 79.0799 187.616 81.5 184.389C84.2225 180.759 85.4744 177.974 82 174.5C80.2815 172.781 77.6531 170.989 76.8889 168.611C75.5762 164.527 77.5999 161.846 81.2778 160.25C84.1091 159.021 86.7741 158.34 89.8333 158C91.5588 157.808 92.0748 157.479 91.8889 155.667C91.3574 150.485 86.4829 143.486 88.8333 138.472C89.706 136.61 90.851 134.497 92.0278 132.806C93.3004 130.976 96.2266 130.073 98.1111 129C101.466 127.09 105.083 125.331 108.806 124.25C111.889 123.355 117.189 122.255 116.611 118.5C115.78 113.097 119.093 110.991 124.417 112.056C129.368 113.046 135.547 114.428 138 108.5C140.258 103.044 144.957 101.865 149.028 98.4722C152.653 95.4513 156.903 92.3921 161.667 91.6111C163.823 91.2576 165.991 91.9508 167.972 90.8333C170.102 89.6321 175.434 84.4335 178 87C179.231 88.2306 179.782 88 181.694 88C182.296 88 184.527 86.9725 184 87.5" stroke="black" stroke-width="2" stroke-linecap="round" stroke-linejoin="round"/>
<path d="M177.5 84.5C179.555 82.8145 182.911 81.2579 184.278 78.8889C186.236 75.4947 186.794 71.6667 188.25 68.0833C190.227 63.2172 194.877 59.1946 199.278 56.5277C206.508 52.1456 216.455 53.2159 224.111 56C226.073 56.7134 226.806 56.6446 228.333 55.1666C231.992 51.6259 236.209 47.8055 241.111 46.1111C244.403 44.973 246.382 46.5453 249.556 47.1944C255.279 48.3651 259.486 46.3343 263.778 42.6666C267.856 39.1812 271.919 34.1673 277.722 35.75C283.614 37.3568 289.161 37.0301 294.806 34.5C296.799 33.6065 301.589 29.7324 303.889 32.1111C305.003 33.2635 305.074 35.9089 305.583 37.3611C306.748 40.6809 308.161 44.1277 310.222 47C315.283 54.0526 322.73 57.7777 331.389 57.7777C338.611 57.7777 345.956 54.9408 353 53.5C362.162 51.626 362.5 44.8019 362.5 36.5555C362.5 33.9941 365.305 34.7488 366.75 35.5555C370.777 37.8032 372.821 42.0169 374.972 45.8889C376.309 48.2958 377.544 49.6375 380 47.7777C384.906 44.0632 389.246 37.4297 390.389 31.3889C391.495 25.5404 391.426 20.8032 396.333 16.5C400.567 12.7875 408.428 12.3482 413.667 11.7222C419.783 10.9913 425.541 10.778 431.472 12.5C437.627 14.2869 443.284 17.493 449.5 19.1666C457.73 21.3824 464.929 18.0705 471.917 13.8611C478.739 9.75143 484.09 6.55218 491.833 4.77774C494.84 4.08861 497.73 3.3481 500.778 2.88885C503.86 2.42443 507.076 0.627826 510.278 1.11108C512.357 1.42493 514.566 3.49542 515.667 5.16663C516.812 6.90655 512.574 8.01634 511 8.99997" stroke="black" stroke-width="2" stroke-linecap="round" stroke-linejoin="round"/>
</svg>
